# xmcd
# Track frame offsets:
# 150
# 14200
# 29332
# 44770
# 55675
# 73567
# 89157
# 103929
# 115982
# 128057
# 139426
#
# Disc length: 2022 seconds
# Revision: 0
# Processed by: cddbd v1.5.2PL0 Copyright (c) Steve Scherf et al.
# Submitted via: VisiTrax 2.10.1.251 - For more info visit www.synapsa.com
#
DISCID=ac07e40b
DTITLE=Billy D. Hunter - INsideOUT
DYEAR=2007
DGENRE=
TTITLE0=Ramblin' Fever
TTITLE1=You're so easy to Love
TTITLE2=Farmers Daughter
TTITLE3=Only Daddy That'll walk the line
TTITLE4=Troubles come and go
TTITLE5=Slow running Low
TTITLE6=Forever is not long
TTITLE7=Working without a net
TTITLE8=We'll finally meet again
TTITLE9=All over again
TTITLE10=Dreaming my dreams
EXTD=
EXTT0=
EXTT1=
EXTT2=
EXTT3=
EXTT4=
EXTT5=
EXTT6=
EXTT7=
EXTT8=
EXTT9=
EXTT10=
PLAYORDER=
